<svg width="100%" height="100%" id="svg" viewBox="0 0 1440 590" xmlns="http://www.w3.org/2000/svg" class="transition duration-300 ease-in-out delay-150"><defs><linearGradient id="gradient" x1="0%" y1="50%" x2="100%" y2="50%"><stop offset="5%" stop-color="#F78DA7"></stop><stop offset="95%" stop-color="#8ED1FC"></stop></linearGradient></defs><path d="M 0,600 C 0,600 0,200 0,200 C 52.129234167893955,183.64874815905745 104.25846833578791,167.29749631811487 158,191 C 211.7415316642121,214.70250368188513 267.0953608247423,278.4587628865979 327,270 C 386.9046391752577,261.5412371134021 451.360088365243,180.86745213549335 512,145 C 572.639911634757,109.13254786450663 629.4642857142857,118.07142857142861 689,148 C 748.5357142857143,177.9285714285714 810.7827687776141,228.8468335787923 875,235 C 939.2172312223859,241.1531664212077 1005.4046391752577,202.54123711340208 1075,187 C 1144.5953608247423,171.45876288659792 1217.598674521355,178.9882179675994 1279,185 C 1340.401325478645,191.0117820324006 1390.2006627393225,195.50589101620028 1440,200 C 1440,200 1440,600 1440,600 Z" stroke="none" stroke-width="0" fill="url(#gradient)" fill-opacity="0.53" class="transition-all duration-300 ease-in-out delay-150 path-0"></path><defs><linearGradient id="gradient" x1="0%" y1="50%" x2="100%" y2="50%"><stop offset="5%" stop-color="#F78DA7"></stop><stop offset="95%" stop-color="#8ED1FC"></stop></linearGradient></defs><path d="M 0,600 C 0,600 0,400 0,400 C 51.94642857142857,426.4096097201767 103.89285714285714,452.8192194403535 157,444 C 210.10714285714286,435.1807805596465 264.375,391.13273195876286 328,374 C 391.625,356.86726804123714 464.6071428571429,366.649852724595 532,375 C 599.3928571428571,383.350147275405 661.1964285714287,390.26785714285705 729,410 C 796.8035714285713,429.73214285714295 870.6071428571428,462.2787187039765 933,461 C 995.3928571428572,459.7212812960235 1046.375,424.61726804123714 1100,402 C 1153.625,379.38273195876286 1209.892857142857,369.2522091310751 1267,371 C 1324.107142857143,372.7477908689249 1382.0535714285716,386.37389543446244 1440,400 C 1440,400 1440,600 1440,600 Z" stroke="none" stroke-width="0" fill="url(#gradient)" fill-opacity="1" class="transition-all duration-300 ease-in-out delay-150 path-1"></path></svg>