<svg width="100%" height="100%" id="svg" viewBox="0 0 1440 590" xmlns="http://www.w3.org/2000/svg" class="transition duration-300 ease-in-out delay-150"><defs><linearGradient id="gradient" x1="0%" y1="50%" x2="100%" y2="50%"><stop offset="5%" stop-color="#F78DA7"></stop><stop offset="95%" stop-color="#8ED1FC"></stop></linearGradient></defs><path d="M 0,600 C 0,600 0,200 0,200 C 98.38277511961724,189.21531100478467 196.76555023923447,178.43062200956936 282,185 C 367.23444976076553,191.56937799043064 439.32057416267946,215.4928229665072 538,229 C 636.6794258373205,242.5071770334928 761.9521531100478,245.5980861244019 860,222 C 958.0478468899522,198.4019138755981 1028.8708133971293,148.11483253588517 1121,140 C 1213.1291866028707,131.88516746411483 1326.5645933014353,165.94258373205741 1440,200 C 1440,200 1440,600 1440,600 Z" stroke="none" stroke-width="0" fill="url(#gradient)" fill-opacity="0.53" class="transition-all duration-300 ease-in-out delay-150 path-0"></path><defs><linearGradient id="gradient" x1="0%" y1="50%" x2="100%" y2="50%"><stop offset="5%" stop-color="#F78DA7"></stop><stop offset="95%" stop-color="#8ED1FC"></stop></linearGradient></defs><path d="M 0,600 C 0,600 0,400 0,400 C 111.57894736842107,371.12918660287085 223.15789473684214,342.25837320574163 314,358 C 404.84210526315786,373.74162679425837 474.9473684210526,434.09569377990425 565,449 C 655.0526315789474,463.90430622009575 765.0526315789473,433.3588516746412 860,431 C 954.9473684210527,428.6411483253588 1034.842105263158,454.4688995215311 1129,454 C 1223.157894736842,453.5311004784689 1331.578947368421,426.76555023923447 1440,400 C 1440,400 1440,600 1440,600 Z" stroke="none" stroke-width="0" fill="url(#gradient)" fill-opacity="1" class="transition-all duration-300 ease-in-out delay-150 path-1"></path></svg>